# xmcd
#
# Track frame offsets:
#	150
#	19065
#	32435
#	46035
#	60163
#	74043
#	88730
#	102314
#	109693
#	119632
#	133281
#	145549
#
# Disc length: 2103 seconds
#
# Revision: 0
# Processed by: cddbd v1.5.2PL0 Copyright (c) Steve Scherf et al.
# Submitted via: dBpowerAMP V4.0
#
DISCID=a208350c
DTITLE=Josh Turner - Pickin' on Josh Turner
DYEAR=1900
DGENRE=Bluegrass
TTITLE0=Long Black Train
TTITLE1=In My Dreams
TTITLE2=What it Ain't
TTITLE3=I Had One, One Time
TTITLE4=Jacksonville
TTITLE5=Backwoods Boy
TTITLE6=Unburn All Our Bridges
TTITLE7=You Don't Mess Around With Jim
TTITLE8=She'll Go on You
TTITLE9=Good Woman Bad
TTITLE10=The Difference Between a Woman and a Man
TTITLE11=Grasshag
EXTD=Pickn' on Josh Turner:  The Bluegrass Tribute
EXTT0=
EXTT1=
EXTT2=
EXTT3=
EXTT4=
EXTT5=
EXTT6=
EXTT7=
EXTT8=
EXTT9=
EXTT10=
EXTT11=
PLAYORDER=
